<svg xmlns="http://www.w3.org/2000/svg" xmlns:xlink="http://www.w3.org/1999/xlink" width="300" zoomAndPan="magnify" viewBox="0 0 224.87999 89.999999" height="120" preserveAspectRatio="xMidYMid meet" version="1.0"><defs><g/><clipPath id="5165194678"><path d="M 99.597656 3.195312 L 123.582031 3.195312 L 123.582031 43.675781 L 99.597656 43.675781 Z M 99.597656 3.195312 " clip-rule="nonzero"/></clipPath><clipPath id="9f4c63ddd4"><path d="M 204 67.347656 L 224.761719 67.347656 L 224.761719 75.59375 L 204 75.59375 Z M 204 67.347656 " clip-rule="nonzero"/></clipPath><clipPath id="a103df3cc3"><path d="M 0 67.347656 L 21 67.347656 L 21 75.59375 L 0 75.59375 Z M 0 67.347656 " clip-rule="nonzero"/></clipPath></defs><g clip-path="url(#5165194678)"><path fill="#bc9c22" d="M 113.304688 3.457031 C 113.164062 3.460938 113.03125 3.539062 112.960938 3.671875 L 108.007812 13.027344 L 111.703125 14.0625 L 111.972656 14.140625 L 113.183594 14.480469 L 113.191406 14.480469 L 114.667969 14.902344 L 114.828125 14.945312 C 114.828125 14.945312 117.472656 15.691406 117.578125 15.722656 C 117.808594 15.785156 118.074219 15.859375 118.445312 15.988281 L 118.46875 15.988281 L 118.484375 15.996094 C 118.546875 16.019531 118.609375 16.042969 118.675781 16.074219 L 118.765625 16.050781 L 119.824219 15.769531 L 120.351562 15.632812 C 120.503906 15.59375 120.800781 15.503906 121.007812 15.417969 C 121.921875 15.039062 122.707031 14.34375 123.171875 13.460938 C 123.648438 12.585938 123.789062 11.546875 123.597656 10.574219 C 123.40625 9.589844 122.859375 8.691406 122.082031 8.058594 C 121.859375 7.867188 121.609375 7.707031 121.335938 7.570312 L 121.335938 7.550781 C 120.515625 6.898438 119.488281 6.585938 118.464844 6.644531 C 118.316406 6.65625 118.171875 6.671875 118.027344 6.695312 C 117.730469 6.742188 117.441406 6.824219 117.152344 6.933594 L 116.71875 7.105469 L 115.839844 7.457031 C 115.484375 7.601562 115.390625 8.058594 115.660156 8.324219 C 115.910156 8.5625 116.230469 8.84375 116.589844 9.097656 C 117 9.386719 117.472656 9.652344 117.972656 9.796875 C 118.316406 10.09375 118.773438 10.269531 119.269531 10.269531 L 119.390625 10.269531 C 119.917969 10.269531 120.421875 10.679688 120.535156 11.222656 C 120.664062 11.761719 120.34375 12.386719 119.8125 12.601562 C 119.726562 12.644531 119.683594 12.652344 119.550781 12.691406 L 115.171875 13.925781 L 115.484375 13.003906 L 116.101562 11.199219 C 116.152344 11.046875 116.109375 10.886719 115.996094 10.785156 C 115.886719 10.671875 115.71875 10.636719 115.574219 10.703125 L 112.238281 12.035156 L 113.714844 3.929688 C 113.746094 3.738281 113.632812 3.542969 113.449219 3.480469 C 113.402344 3.464844 113.351562 3.457031 113.304688 3.457031 Z M 104.488281 6.636719 C 103.757812 6.667969 103.035156 6.890625 102.40625 7.289062 C 102.28125 7.371094 102.160156 7.457031 102.042969 7.550781 L 102.050781 7.578125 C 101.785156 7.707031 101.546875 7.875 101.320312 8.058594 C 100.542969 8.691406 99.996094 9.589844 99.804688 10.574219 C 99.613281 11.546875 99.757812 12.585938 100.230469 13.460938 C 100.695312 14.34375 101.480469 15.039062 102.394531 15.417969 C 102.601562 15.503906 102.898438 15.59375 103.050781 15.632812 C 103.050781 15.632812 117.039062 19.296875 117.257812 19.367188 C 117.761719 19.546875 118.21875 19.875 118.554688 20.296875 C 119.246094 21.15625 119.367188 22.414062 118.84375 23.394531 C 118.589844 23.882812 118.195312 24.300781 117.707031 24.570312 C 117.464844 24.707031 117.207031 24.8125 116.9375 24.878906 L 115.871094 25.125 L 115.359375 25.246094 L 115.605469 24.363281 L 115.855469 23.480469 L 116.597656 20.84375 C 116.488281 20.8125 116.34375 20.78125 116.199219 20.742188 L 115.871094 20.652344 L 114.8125 20.371094 L 114.757812 20.355469 L 112.453125 21.894531 L 113.128906 19.929688 L 111.703125 19.5625 L 110.578125 19.265625 L 110.113281 19.144531 L 108.542969 18.726562 L 108.277344 18.65625 L 104.886719 17.765625 C 104.269531 18.09375 103.726562 18.558594 103.300781 19.121094 C 102.746094 19.847656 102.417969 20.738281 102.347656 21.644531 C 102.28125 22.550781 102.472656 23.480469 102.914062 24.277344 C 103.347656 25.070312 104.007812 25.742188 104.808594 26.175781 C 105 26.277344 105.199219 26.375 105.402344 26.449219 C 105.539062 26.503906 105.671875 26.542969 105.808594 26.582031 L 105.816406 26.589844 C 105.898438 26.609375 105.988281 26.632812 106.066406 26.648438 L 114.628906 28.476562 L 115.140625 28.585938 C 115.253906 28.613281 115.363281 28.644531 115.46875 28.683594 C 115.484375 28.691406 115.507812 28.699219 115.523438 28.707031 C 116.535156 29.117188 117.136719 30.3125 116.855469 31.386719 C 116.726562 31.914062 116.40625 32.402344 115.964844 32.730469 C 115.734375 32.890625 115.507812 33.003906 115.203125 33.101562 L 114.347656 33.375 L 114.941406 33.558594 L 115.4375 33.71875 C 115.613281 33.765625 116.070312 33.925781 116.488281 34.199219 C 116.617188 34.136719 116.734375 34.054688 116.855469 33.976562 C 117.59375 33.445312 118.148438 32.660156 118.378906 31.769531 C 118.613281 30.890625 118.515625 29.925781 118.121094 29.101562 C 117.976562 28.789062 117.785156 28.5 117.570312 28.242188 C 117.351562 27.996094 117.105469 27.761719 116.832031 27.578125 C 116.632812 27.433594 116.414062 27.3125 116.191406 27.210938 C 116.015625 27.128906 115.832031 27.066406 115.636719 27.015625 C 115.605469 27 115.574219 26.992188 115.539062 26.984375 L 114.988281 26.847656 L 106.46875 24.878906 C 106.371094 24.851562 106.273438 24.828125 106.1875 24.789062 C 106.015625 24.730469 105.847656 24.660156 105.695312 24.570312 C 105.207031 24.300781 104.816406 23.882812 104.558594 23.394531 C 104.039062 22.414062 104.15625 21.15625 104.847656 20.296875 C 105.183594 19.875 105.640625 19.546875 106.144531 19.367188 C 106.363281 19.296875 106.792969 19.191406 107.125 19.105469 L 108.183594 18.824219 L 108.230469 18.816406 L 107.917969 19.722656 L 107.605469 20.636719 L 106.699219 23.273438 C 106.746094 23.289062 106.789062 23.304688 106.828125 23.3125 L 107.894531 23.5625 L 111.703125 24.441406 L 112.152344 24.546875 L 113.480469 24.859375 L 114.285156 25.042969 L 115.253906 25.269531 L 115.339844 25.292969 L 115.359375 25.292969 L 115.933594 25.429688 C 116.253906 25.511719 116.558594 25.621094 116.847656 25.75 C 117.265625 25.933594 117.648438 26.167969 118.003906 26.449219 C 118.203125 26.375 118.402344 26.277344 118.59375 26.175781 C 119.398438 25.742188 120.054688 25.070312 120.488281 24.277344 C 120.929688 23.480469 121.121094 22.550781 121.058594 21.644531 C 120.984375 20.738281 120.65625 19.847656 120.101562 19.121094 C 119.679688 18.558594 119.132812 18.09375 118.515625 17.765625 C 118.324219 17.660156 118.128906 17.574219 117.929688 17.5 C 117.632812 17.40625 117.417969 17.339844 117.207031 17.285156 L 103.636719 13.46875 C 103.445312 13.414062 103.390625 13.390625 103.261719 13.339844 C 102.378906 12.972656 101.875 11.953125 102.082031 11.039062 C 102.226562 10.382812 102.714844 9.84375 103.324219 9.605469 C 104.03125 10.003906 104.757812 10 105.433594 9.789062 C 105.9375 9.636719 106.410156 9.371094 106.820312 9.074219 C 107.171875 8.828125 107.476562 8.554688 107.71875 8.324219 C 107.988281 8.058594 107.894531 7.601562 107.542969 7.457031 L 106.691406 7.121094 L 106.226562 6.933594 C 105.945312 6.824219 105.65625 6.742188 105.367188 6.695312 C 105.074219 6.644531 104.78125 6.625 104.488281 6.636719 Z M 105.839844 28.234375 C 105.617188 28.5 105.425781 28.789062 105.28125 29.101562 C 104.886719 29.925781 104.792969 30.890625 105.023438 31.769531 C 105.257812 32.660156 105.808594 33.445312 106.546875 33.976562 C 106.667969 34.054688 106.785156 34.136719 106.914062 34.199219 C 107.1875 34.351562 107.484375 34.464844 107.757812 34.542969 L 114.5625 36.574219 C 114.722656 36.621094 114.796875 36.652344 114.898438 36.71875 C 115.292969 36.949219 115.511719 37.4375 115.421875 37.894531 C 115.375 38.121094 115.261719 38.328125 115.101562 38.496094 C 115.003906 38.585938 114.941406 38.625 114.796875 38.714844 L 114.316406 38.984375 L 113.328125 39.546875 L 114.636719 40.292969 L 114.949219 40.117188 L 115.429688 39.859375 C 115.597656 39.769531 115.839844 39.609375 116.015625 39.441406 C 116.375 39.097656 116.625 38.648438 116.726562 38.160156 C 116.886719 37.421875 116.679688 36.628906 116.191406 36.050781 C 116.039062 35.859375 115.855469 35.691406 115.636719 35.554688 C 115.582031 35.511719 115.507812 35.472656 115.445312 35.441406 C 115.285156 35.355469 115.109375 35.289062 114.972656 35.25 L 108.199219 33.101562 C 107.894531 33.003906 107.667969 32.890625 107.4375 32.730469 C 106.996094 32.402344 106.675781 31.914062 106.546875 31.386719 C 106.265625 30.3125 106.867188 29.117188 107.878906 28.707031 C 107.894531 28.699219 107.917969 28.691406 107.933594 28.683594 Z M 111.050781 29.351562 L 111.035156 29.628906 L 110.890625 32.273438 L 111.703125 32.53125 L 113.023438 32.949219 L 113.03125 32.949219 L 113.167969 32.996094 L 113.191406 32.902344 L 113.457031 31.972656 L 114.019531 29.984375 L 113.226562 29.816406 L 111.703125 29.488281 L 111.085938 29.359375 Z M 107.210938 36.050781 C 106.722656 36.628906 106.515625 37.421875 106.675781 38.160156 C 106.78125 38.648438 107.027344 39.097656 107.386719 39.441406 C 107.5625 39.609375 107.804688 39.769531 107.972656 39.859375 L 113.375 42.800781 L 114.21875 43.257812 C 114.308594 43.304688 114.402344 43.324219 114.5 43.324219 C 114.707031 43.324219 114.910156 43.21875 115.019531 43.023438 C 115.179688 42.746094 115.074219 42.382812 114.796875 42.214844 L 114.621094 42.121094 L 108.609375 38.714844 C 108.464844 38.625 108.398438 38.585938 108.300781 38.496094 C 108.140625 38.328125 108.03125 38.121094 107.980469 37.894531 C 107.894531 37.4375 108.109375 36.949219 108.503906 36.71875 C 108.605469 36.652344 108.679688 36.621094 108.839844 36.574219 L 108.902344 36.554688 C 108.902344 36.554688 107.246094 36.058594 107.210938 36.050781 Z M 107.210938 36.050781 " fill-opacity="1" fill-rule="nonzero"/></g><g fill="#f8f7f2" fill-opacity="1"><g transform="translate(20.607894, 64.198216)"><g><path d="M 13.78125 -7.765625 C 13.78125 -6.640625 13.570312 -5.601562 13.15625 -4.65625 C 12.726562 -3.695312 12.15625 -2.875 11.4375 -2.1875 C 10.726562 -1.507812 9.882812 -0.976562 8.90625 -0.59375 C 7.9375 -0.195312 6.894531 0 5.78125 0 L 1.71875 0 L 1.71875 -15.53125 L 5.78125 -15.53125 C 6.894531 -15.53125 7.9375 -15.34375 8.90625 -14.96875 C 9.882812 -14.570312 10.726562 -14.03125 11.4375 -13.34375 C 12.15625 -12.65625 12.726562 -11.835938 13.15625 -10.890625 C 13.570312 -9.929688 13.78125 -8.890625 13.78125 -7.765625 Z M 12.21875 -7.765625 C 12.21875 -9.535156 11.59375 -11.015625 10.34375 -12.203125 C 9.125 -13.359375 7.617188 -13.9375 5.828125 -13.9375 L 3.3125 -13.9375 L 3.3125 -1.59375 L 5.828125 -1.59375 C 7.617188 -1.59375 9.125 -2.171875 10.34375 -3.328125 C 11.59375 -4.515625 12.21875 -5.992188 12.21875 -7.765625 Z M 12.21875 -7.765625 "/></g></g></g><g fill="#f8f7f2" fill-opacity="1"><g transform="translate(36.096075, 64.198216)"><g><path d="M 3.3125 0 L 1.71875 0 L 1.71875 -15.53125 L 3.3125 -15.53125 Z M 3.3125 0 "/></g></g></g><g fill="#f8f7f2" fill-opacity="1"><g transform="translate(41.807206, 64.198216)"><g><path d="M 3.3125 -1.59375 L 8.859375 -1.59375 L 8.859375 0 L 1.71875 0 L 1.71875 -15.53125 L 3.3125 -15.53125 Z M 3.3125 -1.59375 "/></g></g></g><g fill="#f8f7f2" fill-opacity="1"><g transform="translate(51.812925, 64.198216)"><g><path d="M 4.21875 -5.71875 L 9.875 -5.71875 L 7.0625 -12.859375 Z M 13.859375 0 L 12.125 0 L 10.46875 -4.21875 L 3.625 -4.21875 L 1.96875 0 L 0.234375 0 L 7.0625 -16.609375 Z M 13.859375 0 "/></g></g></g><g fill="#f8f7f2" fill-opacity="1"><g transform="translate(66.592948, 64.198216)"><g><path d="M 3.3125 -11.4375 L 3.3125 0 L 1.71875 0 L 1.71875 -16.515625 L 10.4375 -4.109375 L 10.4375 -15.53125 L 12.03125 -15.53125 L 12.03125 0.953125 Z M 3.3125 -11.4375 "/></g></g></g><g fill="#f8f7f2" fill-opacity="1"><g transform="translate(81.030318, 64.198216)"><g/></g></g><g fill="#f8f7f2" fill-opacity="1"><g transform="translate(87.883627, 64.198216)"><g><path d="M 17.046875 -7.265625 L 16.875 -6.3125 C 16.539062 -4.414062 15.625 -2.859375 14.125 -1.640625 C 12.613281 -0.421875 10.910156 0.1875 9.015625 0.1875 C 7.921875 0.1875 6.890625 -0.0234375 5.921875 -0.453125 C 4.941406 -0.867188 4.09375 -1.441406 3.375 -2.171875 C 2.644531 -2.890625 2.078125 -3.734375 1.671875 -4.703125 C 1.242188 -5.679688 1.03125 -6.722656 1.03125 -7.828125 C 1.03125 -8.929688 1.242188 -9.96875 1.671875 -10.9375 C 2.078125 -11.914062 2.644531 -12.769531 3.375 -13.5 C 4.09375 -14.21875 4.941406 -14.789062 5.921875 -15.21875 C 6.890625 -15.625 7.867188 -15.828125 8.859375 -15.828125 C 10.722656 -15.828125 12.363281 -15.300781 13.78125 -14.25 C 15.207031 -13.195312 16.179688 -11.8125 16.703125 -10.09375 L 15.015625 -10.09375 C 14.523438 -11.363281 13.738281 -12.367188 12.65625 -13.109375 C 11.5625 -13.859375 10.347656 -14.234375 9.015625 -14.234375 C 7.253906 -14.234375 5.75 -13.609375 4.5 -12.359375 C 3.25 -11.109375 2.625 -9.597656 2.625 -7.828125 C 2.625 -6.078125 3.25 -4.570312 4.5 -3.3125 C 5.726562 -2.050781 7.234375 -1.421875 9.015625 -1.421875 C 10.421875 -1.421875 11.703125 -1.820312 12.859375 -2.625 C 14.003906 -3.445312 14.804688 -4.53125 15.265625 -5.875 L 8.953125 -5.875 L 8.953125 -7.265625 Z M 17.046875 -7.265625 "/></g></g></g><g fill="#f8f7f2" fill-opacity="1"><g transform="translate(106.638441, 64.198216)"><g><path d="M 12.953125 -5.140625 C 12.953125 -3.460938 12.40625 -2.140625 11.3125 -1.171875 C 10.269531 -0.253906 8.890625 0.203125 7.171875 0.203125 C 5.429688 0.203125 4.046875 -0.253906 3.015625 -1.171875 C 1.921875 -2.140625 1.375 -3.460938 1.375 -5.140625 L 1.375 -15.53125 L 2.96875 -15.53125 L 2.96875 -4.90625 C 2.96875 -3.738281 3.394531 -2.84375 4.25 -2.21875 C 4.976562 -1.664062 5.953125 -1.390625 7.171875 -1.390625 C 9.078125 -1.390625 10.359375 -2.03125 11.015625 -3.3125 C 11.242188 -3.75 11.359375 -4.28125 11.359375 -4.90625 L 11.359375 -15.53125 L 12.953125 -15.53125 Z M 12.953125 -5.140625 "/></g></g></g><g fill="#f8f7f2" fill-opacity="1"><g transform="translate(121.646899, 64.198216)"><g><path d="M 0.453125 -14.09375 L 0.453125 -15.578125 L 9.59375 -15.578125 L 9.59375 -14.09375 L 5.828125 -14.09375 L 5.828125 -0.046875 L 4.21875 -0.046875 L 4.21875 -14.09375 Z M 0.453125 -14.09375 "/></g></g></g><g fill="#f8f7f2" fill-opacity="1"><g transform="translate(132.383603, 64.198216)"><g><path d="M 3.3125 0 L 1.71875 0 L 1.71875 -15.53125 L 3.3125 -15.53125 Z M 3.3125 0 "/></g></g></g><g fill="#f8f7f2" fill-opacity="1"><g transform="translate(138.094735, 64.198216)"><g><path d="M 10.9375 0 L 1.71875 0 L 1.71875 -15.53125 L 10.9375 -15.53125 L 10.9375 -14.046875 L 3.3125 -14.046875 L 3.3125 -8.515625 L 10.71875 -8.515625 L 10.71875 -7.015625 L 3.3125 -7.015625 L 3.3125 -1.484375 L 10.9375 -1.484375 Z M 10.9375 0 "/></g></g></g><g fill="#f8f7f2" fill-opacity="1"><g transform="translate(151.435623, 64.198216)"><g><path d="M 3.3125 -7.671875 L 6.921875 -7.671875 C 7.816406 -7.671875 8.554688 -7.976562 9.140625 -8.59375 C 9.734375 -9.21875 10.03125 -9.984375 10.03125 -10.890625 C 10.03125 -11.796875 9.75 -12.546875 9.1875 -13.140625 C 8.625 -13.710938 7.867188 -14 6.921875 -14 L 3.3125 -14 Z M 11.625 -10.84375 C 11.625 -9.488281 11.144531 -8.363281 10.1875 -7.46875 C 9.332031 -6.675781 8.304688 -6.242188 7.109375 -6.171875 L 11.875 0 L 9.734375 0 L 5.1875 -6.140625 L 3.3125 -6.140625 L 3.3125 0 L 1.71875 0 L 1.71875 -15.53125 L 6.6875 -15.53125 C 8.070312 -15.53125 9.238281 -15.097656 10.1875 -14.234375 C 11.144531 -13.316406 11.625 -12.1875 11.625 -10.84375 Z M 11.625 -10.84375 "/></g></g></g><g fill="#f8f7f2" fill-opacity="1"><g transform="translate(164.548076, 64.198216)"><g><path d="M 3.3125 -7.671875 L 6.921875 -7.671875 C 7.816406 -7.671875 8.554688 -7.976562 9.140625 -8.59375 C 9.734375 -9.21875 10.03125 -9.984375 10.03125 -10.890625 C 10.03125 -11.796875 9.75 -12.546875 9.1875 -13.140625 C 8.625 -13.710938 7.867188 -14 6.921875 -14 L 3.3125 -14 Z M 11.625 -10.84375 C 11.625 -9.488281 11.144531 -8.363281 10.1875 -7.46875 C 9.332031 -6.675781 8.304688 -6.242188 7.109375 -6.171875 L 11.875 0 L 9.734375 0 L 5.1875 -6.140625 L 3.3125 -6.140625 L 3.3125 0 L 1.71875 0 L 1.71875 -15.53125 L 6.6875 -15.53125 C 8.070312 -15.53125 9.238281 -15.097656 10.1875 -14.234375 C 11.144531 -13.316406 11.625 -12.1875 11.625 -10.84375 Z M 11.625 -10.84375 "/></g></g></g><g fill="#f8f7f2" fill-opacity="1"><g transform="translate(177.660528, 64.198216)"><g><path d="M 10.9375 0 L 1.71875 0 L 1.71875 -15.53125 L 10.9375 -15.53125 L 10.9375 -14.046875 L 3.3125 -14.046875 L 3.3125 -8.515625 L 10.71875 -8.515625 L 10.71875 -7.015625 L 3.3125 -7.015625 L 3.3125 -1.484375 L 10.9375 -1.484375 Z M 10.9375 0 "/></g></g></g><g fill="#f8f7f2" fill-opacity="1"><g transform="translate(191.001416, 64.198216)"><g><path d="M 3.46875 -1.484375 L 12.296875 -1.484375 L 12.296875 0 L 0.578125 0 L 9.78125 -14.046875 L 1.046875 -14.046875 L 1.046875 -15.53125 L 12.671875 -15.53125 Z M 3.46875 -1.484375 "/></g></g></g><g fill="#bc9c22" fill-opacity="1"><g transform="translate(40.57675, 84.430371)"><g><path d="M 0.1875 -5.671875 L 0.1875 -6.265625 L 3.859375 -6.265625 L 3.859375 -5.671875 L 2.34375 -5.671875 L 2.34375 -0.015625 L 1.703125 -0.015625 L 1.703125 -5.671875 Z M 0.1875 -5.671875 "/></g></g></g><g fill="#bc9c22" fill-opacity="1"><g transform="translate(45.261445, 84.430371)"><g><path d="M 4.640625 -2.109375 L 4.640625 -1.765625 L 1.078125 -1.765625 C 1.140625 -1.421875 1.3125 -1.140625 1.59375 -0.921875 C 1.875 -0.691406 2.1875 -0.578125 2.53125 -0.578125 C 2.757812 -0.578125 2.984375 -0.632812 3.203125 -0.75 C 3.410156 -0.851562 3.582031 -1 3.71875 -1.1875 L 4.453125 -1.1875 C 4.285156 -0.800781 4.03125 -0.5 3.6875 -0.28125 C 3.332031 -0.0507812 2.976562 0.0625 2.625 0.0625 C 2.257812 0.0625 1.953125 0.0078125 1.703125 -0.09375 C 1.453125 -0.207031 1.226562 -0.359375 1.03125 -0.546875 C 0.613281 -0.953125 0.40625 -1.453125 0.40625 -2.046875 C 0.40625 -2.617188 0.613281 -3.113281 1.03125 -3.53125 C 1.445312 -3.945312 1.945312 -4.15625 2.53125 -4.15625 C 3.09375 -4.15625 3.582031 -3.957031 4 -3.5625 C 4.425781 -3.15625 4.640625 -2.671875 4.640625 -2.109375 Z M 3.953125 -2.328125 C 3.878906 -2.671875 3.707031 -2.953125 3.4375 -3.171875 C 3.175781 -3.398438 2.875 -3.515625 2.53125 -3.515625 C 2 -3.515625 1.582031 -3.273438 1.28125 -2.796875 C 1.1875 -2.648438 1.125 -2.492188 1.09375 -2.328125 Z M 3.953125 -2.328125 "/></g></g></g><g fill="#bc9c22" fill-opacity="1"><g transform="translate(50.910625, 84.430371)"><g><path d="M 2.765625 -3.203125 C 2.617188 -3.335938 2.457031 -3.40625 2.28125 -3.40625 C 2.125 -3.40625 1.984375 -3.359375 1.859375 -3.265625 C 1.742188 -3.171875 1.644531 -3.054688 1.5625 -2.921875 C 1.40625 -2.648438 1.328125 -2.347656 1.328125 -2.015625 L 1.328125 0 L 0.6875 0 L 0.6875 -4.046875 L 1.328125 -4.046875 L 1.328125 -3.203125 L 1.359375 -3.375 C 1.578125 -3.875 1.910156 -4.125 2.359375 -4.125 C 2.503906 -4.125 2.640625 -4.097656 2.765625 -4.046875 Z M 2.765625 -3.203125 "/></g></g></g><g fill="#bc9c22" fill-opacity="1"><g transform="translate(54.410362, 84.430371)"><g><path d="M 3.90625 -2.015625 C 3.90625 -2.410156 3.769531 -2.753906 3.5 -3.046875 C 3.226562 -3.335938 2.890625 -3.484375 2.484375 -3.484375 C 2.078125 -3.484375 1.738281 -3.335938 1.46875 -3.046875 C 1.195312 -2.753906 1.0625 -2.410156 1.0625 -2.015625 C 1.0625 -1.628906 1.195312 -1.289062 1.46875 -1 C 1.738281 -0.695312 2.078125 -0.546875 2.484375 -0.546875 C 2.890625 -0.546875 3.226562 -0.695312 3.5 -1 C 3.769531 -1.289062 3.90625 -1.628906 3.90625 -2.015625 Z M 4.546875 0 L 3.90625 0 L 3.90625 -0.6875 C 3.863281 -0.632812 3.828125 -0.585938 3.796875 -0.546875 C 3.410156 -0.117188 2.9375 0.09375 2.375 0.09375 C 1.820312 0.09375 1.351562 -0.117188 0.96875 -0.546875 C 0.59375 -0.960938 0.40625 -1.453125 0.40625 -2.015625 C 0.40625 -2.578125 0.59375 -3.066406 0.96875 -3.484375 C 1.351562 -3.921875 1.820312 -4.140625 2.375 -4.140625 C 2.9375 -4.140625 3.410156 -3.921875 3.796875 -3.484375 C 3.828125 -3.441406 3.863281 -3.398438 3.90625 -3.359375 L 3.90625 -4.046875 L 4.546875 -4.046875 Z M 4.546875 0 "/></g></g></g><g fill="#bc9c22" fill-opacity="1"><g transform="translate(60.289184, 84.430371)"><g><path d="M 1.328125 2.296875 L 0.6875 2.296875 L 0.6875 -4.046875 L 1.328125 -4.046875 L 1.328125 -3.359375 C 1.367188 -3.398438 1.410156 -3.441406 1.453125 -3.484375 C 1.828125 -3.921875 2.296875 -4.140625 2.859375 -4.140625 C 3.410156 -4.140625 3.878906 -3.921875 4.265625 -3.484375 C 4.640625 -3.066406 4.828125 -2.578125 4.828125 -2.015625 C 4.828125 -1.453125 4.640625 -0.960938 4.265625 -0.546875 C 3.878906 -0.117188 3.410156 0.09375 2.859375 0.09375 C 2.296875 0.09375 1.828125 -0.117188 1.453125 -0.546875 C 1.410156 -0.585938 1.367188 -0.632812 1.328125 -0.6875 Z M 4.1875 -2.015625 C 4.1875 -2.410156 4.050781 -2.753906 3.78125 -3.046875 C 3.5 -3.335938 3.15625 -3.484375 2.75 -3.484375 C 2.351562 -3.484375 2.019531 -3.335938 1.75 -3.046875 C 1.46875 -2.753906 1.328125 -2.410156 1.328125 -2.015625 C 1.328125 -1.628906 1.46875 -1.289062 1.75 -1 C 2.019531 -0.695312 2.351562 -0.546875 2.75 -0.546875 C 3.15625 -0.546875 3.5 -0.695312 3.78125 -1 C 4.050781 -1.289062 4.1875 -1.628906 4.1875 -2.015625 Z M 4.1875 -2.015625 "/></g></g></g><g fill="#bc9c22" fill-opacity="1"><g transform="translate(66.168007, 84.430371)"><g><path d="M 1.34375 -5.4375 C 1.414062 -5.351562 1.453125 -5.257812 1.453125 -5.15625 C 1.453125 -5.039062 1.414062 -4.941406 1.34375 -4.859375 C 1.257812 -4.773438 1.164062 -4.734375 1.0625 -4.734375 C 0.9375 -4.734375 0.835938 -4.773438 0.765625 -4.859375 C 0.679688 -4.941406 0.640625 -5.039062 0.640625 -5.15625 C 0.640625 -5.257812 0.679688 -5.351562 0.765625 -5.4375 C 0.835938 -5.519531 0.9375 -5.5625 1.0625 -5.5625 C 1.164062 -5.5625 1.257812 -5.519531 1.34375 -5.4375 Z M 1.375 0 L 0.734375 0 L 0.734375 -4.046875 L 1.375 -4.046875 Z M 1.375 0 "/></g></g></g><g fill="#bc9c22" fill-opacity="1"><g transform="translate(68.914517, 84.430371)"><g><path d="M 3.90625 -2.015625 C 3.90625 -2.410156 3.769531 -2.753906 3.5 -3.046875 C 3.226562 -3.335938 2.890625 -3.484375 2.484375 -3.484375 C 2.078125 -3.484375 1.738281 -3.335938 1.46875 -3.046875 C 1.195312 -2.753906 1.0625 -2.410156 1.0625 -2.015625 C 1.0625 -1.628906 1.195312 -1.289062 1.46875 -1 C 1.738281 -0.695312 2.078125 -0.546875 2.484375 -0.546875 C 2.890625 -0.546875 3.226562 -0.695312 3.5 -1 C 3.769531 -1.289062 3.90625 -1.628906 3.90625 -2.015625 Z M 4.546875 0 L 3.90625 0 L 3.90625 -0.6875 C 3.863281 -0.632812 3.828125 -0.585938 3.796875 -0.546875 C 3.410156 -0.117188 2.9375 0.09375 2.375 0.09375 C 1.820312 0.09375 1.351562 -0.117188 0.96875 -0.546875 C 0.59375 -0.960938 0.40625 -1.453125 0.40625 -2.015625 C 0.40625 -2.578125 0.59375 -3.066406 0.96875 -3.484375 C 1.351562 -3.921875 1.820312 -4.140625 2.375 -4.140625 C 2.9375 -4.140625 3.410156 -3.921875 3.796875 -3.484375 C 3.828125 -3.441406 3.863281 -3.398438 3.90625 -3.359375 L 3.90625 -4.046875 L 4.546875 -4.046875 Z M 4.546875 0 "/></g></g></g><g fill="#bc9c22" fill-opacity="1"><g transform="translate(74.793339, 84.430371)"><g/></g></g><g fill="#bc9c22" fill-opacity="1"><g transform="translate(77.916462, 84.430371)"><g><path d="M 4.40625 -5.65625 L 1.328125 -5.65625 L 1.328125 -3.421875 L 4.3125 -3.421875 L 4.3125 -2.828125 L 1.328125 -2.828125 L 1.328125 0 L 0.6875 0 L 0.6875 -6.25 L 4.40625 -6.25 Z M 4.40625 -5.65625 "/></g></g></g><g fill="#bc9c22" fill-opacity="1"><g transform="translate(83.143103, 84.430371)"><g><path d="M 1.375 0 L 0.734375 0 L 0.734375 -4.046875 L 1.375 -4.046875 Z M 2.4375 -6.25 L 1.421875 -4.9375 L 0.90625 -4.9375 L 1.640625 -6.25 Z M 2.4375 -6.25 "/></g></g></g><g fill="#bc9c22" fill-opacity="1"><g transform="translate(85.889613, 84.430371)"><g><path d="M 1.28125 -0.578125 C 1.4375 -0.460938 1.644531 -0.40625 1.90625 -0.40625 C 2.488281 -0.40625 2.78125 -0.628906 2.78125 -1.078125 C 2.78125 -1.328125 2.570312 -1.519531 2.15625 -1.65625 C 1.976562 -1.71875 1.785156 -1.773438 1.578125 -1.828125 C 1.367188 -1.878906 1.175781 -1.941406 1 -2.015625 C 0.789062 -2.117188 0.632812 -2.242188 0.53125 -2.390625 C 0.425781 -2.535156 0.375 -2.707031 0.375 -2.90625 C 0.375 -3.3125 0.515625 -3.617188 0.796875 -3.828125 C 1.078125 -4.035156 1.414062 -4.140625 1.8125 -4.140625 C 2.195312 -4.140625 2.519531 -4.054688 2.78125 -3.890625 C 3.039062 -3.734375 3.21875 -3.453125 3.3125 -3.046875 L 2.625 -3.046875 C 2.550781 -3.265625 2.441406 -3.410156 2.296875 -3.484375 C 2.160156 -3.554688 1.992188 -3.59375 1.796875 -3.59375 C 1.585938 -3.59375 1.414062 -3.550781 1.28125 -3.46875 C 1.132812 -3.375 1.0625 -3.238281 1.0625 -3.0625 C 1.0625 -2.882812 1.117188 -2.753906 1.234375 -2.671875 C 1.359375 -2.585938 1.507812 -2.515625 1.6875 -2.453125 C 1.863281 -2.398438 2.054688 -2.351562 2.265625 -2.3125 C 2.460938 -2.257812 2.65625 -2.191406 2.84375 -2.109375 C 3.257812 -1.910156 3.46875 -1.59375 3.46875 -1.15625 C 3.46875 -0.71875 3.3125 -0.394531 3 -0.1875 C 2.832031 -0.0820312 2.65625 -0.00390625 2.46875 0.046875 C 2.289062 0.0976562 2.085938 0.125 1.859375 0.125 C 0.921875 0.125 0.382812 -0.289062 0.25 -1.125 L 0.921875 -1.125 C 0.992188 -0.863281 1.113281 -0.679688 1.28125 -0.578125 Z M 1.28125 -0.578125 "/></g></g></g><g fill="#bc9c22" fill-opacity="1"><g transform="translate(90.225251, 84.430371)"><g><path d="M 1.34375 -5.4375 C 1.414062 -5.351562 1.453125 -5.257812 1.453125 -5.15625 C 1.453125 -5.039062 1.414062 -4.941406 1.34375 -4.859375 C 1.257812 -4.773438 1.164062 -4.734375 1.0625 -4.734375 C 0.9375 -4.734375 0.835938 -4.773438 0.765625 -4.859375 C 0.679688 -4.941406 0.640625 -5.039062 0.640625 -5.15625 C 0.640625 -5.257812 0.679688 -5.351562 0.765625 -5.4375 C 0.835938 -5.519531 0.9375 -5.5625 1.0625 -5.5625 C 1.164062 -5.5625 1.257812 -5.519531 1.34375 -5.4375 Z M 1.375 0 L 0.734375 0 L 0.734375 -4.046875 L 1.375 -4.046875 Z M 1.375 0 "/></g></g></g><g fill="#bc9c22" fill-opacity="1"><g transform="translate(92.971758, 84.430371)"><g><path d="M 4.46875 -2.59375 L 3.765625 -2.59375 C 3.648438 -2.851562 3.476562 -3.0625 3.25 -3.21875 C 3.019531 -3.375 2.785156 -3.453125 2.546875 -3.453125 C 2.304688 -3.453125 2.097656 -3.414062 1.921875 -3.34375 C 1.753906 -3.257812 1.609375 -3.15625 1.484375 -3.03125 C 1.210938 -2.738281 1.078125 -2.398438 1.078125 -2.015625 C 1.078125 -1.628906 1.210938 -1.296875 1.484375 -1.015625 C 1.753906 -0.722656 2.085938 -0.578125 2.484375 -0.578125 C 2.734375 -0.578125 2.972656 -0.644531 3.203125 -0.78125 C 3.410156 -0.914062 3.578125 -1.097656 3.703125 -1.328125 L 4.421875 -1.328125 C 4.203125 -0.671875 3.765625 -0.234375 3.109375 -0.015625 C 2.910156 0.0546875 2.679688 0.09375 2.421875 0.09375 C 2.171875 0.09375 1.914062 0.0351562 1.65625 -0.078125 C 1.40625 -0.191406 1.191406 -0.347656 1.015625 -0.546875 C 0.609375 -0.960938 0.40625 -1.453125 0.40625 -2.015625 C 0.40625 -2.597656 0.609375 -3.09375 1.015625 -3.5 C 1.410156 -3.914062 1.898438 -4.125 2.484375 -4.125 C 2.941406 -4.125 3.359375 -3.976562 3.734375 -3.6875 C 4.085938 -3.414062 4.332031 -3.050781 4.46875 -2.59375 Z M 4.46875 -2.59375 "/></g></g></g><g fill="#bc9c22" fill-opacity="1"><g transform="translate(98.400484, 84.430371)"><g><path d="M 3.90625 -2.015625 C 3.90625 -2.410156 3.769531 -2.753906 3.5 -3.046875 C 3.226562 -3.335938 2.890625 -3.484375 2.484375 -3.484375 C 2.078125 -3.484375 1.738281 -3.335938 1.46875 -3.046875 C 1.195312 -2.753906 1.0625 -2.410156 1.0625 -2.015625 C 1.0625 -1.628906 1.195312 -1.289062 1.46875 -1 C 1.738281 -0.695312 2.078125 -0.546875 2.484375 -0.546875 C 2.890625 -0.546875 3.226562 -0.695312 3.5 -1 C 3.769531 -1.289062 3.90625 -1.628906 3.90625 -2.015625 Z M 4.546875 0 L 3.90625 0 L 3.90625 -0.6875 C 3.863281 -0.632812 3.828125 -0.585938 3.796875 -0.546875 C 3.410156 -0.117188 2.9375 0.09375 2.375 0.09375 C 1.820312 0.09375 1.351562 -0.117188 0.96875 -0.546875 C 0.59375 -0.960938 0.40625 -1.453125 0.40625 -2.015625 C 0.40625 -2.578125 0.59375 -3.066406 0.96875 -3.484375 C 1.351562 -3.921875 1.820312 -4.140625 2.375 -4.140625 C 2.9375 -4.140625 3.410156 -3.921875 3.796875 -3.484375 C 3.828125 -3.441406 3.863281 -3.398438 3.90625 -3.359375 L 3.90625 -4.046875 L 4.546875 -4.046875 Z M 4.546875 0 "/></g></g></g><g fill="#bc9c22" fill-opacity="1"><g transform="translate(104.279304, 84.430371)"><g/></g></g><g fill="#bc9c22" fill-opacity="1"><g transform="translate(107.402424, 84.430371)"><g><path d="M 1.203125 2.296875 L 0.421875 2.296875 L 1.78125 -0.65625 L 0.09375 -4.046875 L 0.828125 -4.046875 L 2.125 -1.328125 L 3.28125 -4.046875 L 4 -4.046875 Z M 1.203125 2.296875 "/></g></g></g><g fill="#bc9c22" fill-opacity="1"><g transform="translate(111.949326, 84.430371)"><g/></g></g><g fill="#bc9c22" fill-opacity="1"><g transform="translate(115.072447, 84.430371)"><g><path d="M 1.328125 -3.09375 L 2.78125 -3.09375 C 3.144531 -3.09375 3.441406 -3.210938 3.671875 -3.453125 C 3.910156 -3.703125 4.03125 -4.007812 4.03125 -4.375 C 4.03125 -4.738281 3.914062 -5.039062 3.6875 -5.28125 C 3.46875 -5.507812 3.164062 -5.625 2.78125 -5.625 L 1.328125 -5.625 Z M 4.671875 -4.359375 C 4.671875 -3.816406 4.476562 -3.363281 4.09375 -3 C 3.75 -2.6875 3.335938 -2.515625 2.859375 -2.484375 L 4.78125 0 L 3.90625 0 L 2.078125 -2.46875 L 1.328125 -2.46875 L 1.328125 0 L 0.6875 0 L 0.6875 -6.25 L 2.6875 -6.25 C 3.25 -6.25 3.71875 -6.070312 4.09375 -5.71875 C 4.476562 -5.351562 4.671875 -4.898438 4.671875 -4.359375 Z M 4.671875 -4.359375 "/></g></g></g><g fill="#bc9c22" fill-opacity="1"><g transform="translate(120.712443, 84.430371)"><g><path d="M 4.640625 -2.109375 L 4.640625 -1.765625 L 1.078125 -1.765625 C 1.140625 -1.421875 1.3125 -1.140625 1.59375 -0.921875 C 1.875 -0.691406 2.1875 -0.578125 2.53125 -0.578125 C 2.757812 -0.578125 2.984375 -0.632812 3.203125 -0.75 C 3.410156 -0.851562 3.582031 -1 3.71875 -1.1875 L 4.453125 -1.1875 C 4.285156 -0.800781 4.03125 -0.5 3.6875 -0.28125 C 3.332031 -0.0507812 2.976562 0.0625 2.625 0.0625 C 2.257812 0.0625 1.953125 0.0078125 1.703125 -0.09375 C 1.453125 -0.207031 1.226562 -0.359375 1.03125 -0.546875 C 0.613281 -0.953125 0.40625 -1.453125 0.40625 -2.046875 C 0.40625 -2.617188 0.613281 -3.113281 1.03125 -3.53125 C 1.445312 -3.945312 1.945312 -4.15625 2.53125 -4.15625 C 3.09375 -4.15625 3.582031 -3.957031 4 -3.5625 C 4.425781 -3.15625 4.640625 -2.671875 4.640625 -2.109375 Z M 3.953125 -2.328125 C 3.878906 -2.671875 3.707031 -2.953125 3.4375 -3.171875 C 3.175781 -3.398438 2.875 -3.515625 2.53125 -3.515625 C 2 -3.515625 1.582031 -3.273438 1.28125 -2.796875 C 1.1875 -2.648438 1.125 -2.492188 1.09375 -2.328125 Z M 3.953125 -2.328125 "/></g></g></g><g fill="#bc9c22" fill-opacity="1"><g transform="translate(126.36162, 84.430371)"><g><path d="M 1.328125 0 L 0.6875 0 L 0.6875 -6.890625 L 1.328125 -6.890625 L 1.328125 -3.34375 C 1.460938 -3.570312 1.632812 -3.757812 1.84375 -3.90625 C 2.0625 -4.050781 2.316406 -4.125 2.609375 -4.125 C 2.898438 -4.125 3.132812 -4.082031 3.3125 -4 C 3.488281 -3.914062 3.632812 -3.804688 3.75 -3.671875 C 4 -3.378906 4.125 -3 4.125 -2.53125 L 4.125 0 L 3.484375 0 L 3.484375 -2.53125 C 3.484375 -2.789062 3.425781 -3.015625 3.3125 -3.203125 C 3.1875 -3.390625 2.984375 -3.484375 2.703125 -3.484375 C 2.429688 -3.484375 2.210938 -3.441406 2.046875 -3.359375 C 1.867188 -3.265625 1.726562 -3.140625 1.625 -2.984375 C 1.425781 -2.679688 1.328125 -2.25 1.328125 -1.6875 Z M 1.328125 0 "/></g></g></g><g fill="#bc9c22" fill-opacity="1"><g transform="translate(131.680122, 84.430371)"><g><path d="M 3.90625 -2.015625 C 3.90625 -2.410156 3.769531 -2.753906 3.5 -3.046875 C 3.226562 -3.335938 2.890625 -3.484375 2.484375 -3.484375 C 2.078125 -3.484375 1.738281 -3.335938 1.46875 -3.046875 C 1.195312 -2.753906 1.0625 -2.410156 1.0625 -2.015625 C 1.0625 -1.628906 1.195312 -1.289062 1.46875 -1 C 1.738281 -0.695312 2.078125 -0.546875 2.484375 -0.546875 C 2.890625 -0.546875 3.226562 -0.695312 3.5 -1 C 3.769531 -1.289062 3.90625 -1.628906 3.90625 -2.015625 Z M 4.546875 0 L 3.90625 0 L 3.90625 -0.6875 C 3.863281 -0.632812 3.828125 -0.585938 3.796875 -0.546875 C 3.410156 -0.117188 2.9375 0.09375 2.375 0.09375 C 1.820312 0.09375 1.351562 -0.117188 0.96875 -0.546875 C 0.59375 -0.960938 0.40625 -1.453125 0.40625 -2.015625 C 0.40625 -2.578125 0.59375 -3.066406 0.96875 -3.484375 C 1.351562 -3.921875 1.820312 -4.140625 2.375 -4.140625 C 2.9375 -4.140625 3.410156 -3.921875 3.796875 -3.484375 C 3.828125 -3.441406 3.863281 -3.398438 3.90625 -3.359375 L 3.90625 -4.046875 L 4.546875 -4.046875 Z M 4.546875 0 "/></g></g></g><g fill="#bc9c22" fill-opacity="1"><g transform="translate(137.558941, 84.430371)"><g><path d="M 1.328125 0 L 0.6875 0 L 0.6875 -6.890625 L 1.328125 -6.890625 L 1.328125 -3.359375 C 1.367188 -3.398438 1.410156 -3.441406 1.453125 -3.484375 C 1.828125 -3.921875 2.296875 -4.140625 2.859375 -4.140625 C 3.410156 -4.140625 3.878906 -3.921875 4.265625 -3.484375 C 4.640625 -3.066406 4.828125 -2.578125 4.828125 -2.015625 C 4.828125 -1.453125 4.640625 -0.960938 4.265625 -0.546875 C 3.878906 -0.117188 3.410156 0.09375 2.859375 0.09375 C 2.296875 0.09375 1.828125 -0.117188 1.453125 -0.546875 C 1.410156 -0.585938 1.367188 -0.632812 1.328125 -0.6875 Z M 4.1875 -2.015625 C 4.1875 -2.410156 4.050781 -2.753906 3.78125 -3.046875 C 3.5 -3.335938 3.15625 -3.484375 2.75 -3.484375 C 2.351562 -3.484375 2.019531 -3.335938 1.75 -3.046875 C 1.46875 -2.753906 1.328125 -2.410156 1.328125 -2.015625 C 1.328125 -1.628906 1.46875 -1.289062 1.75 -1 C 2.019531 -0.695312 2.351562 -0.546875 2.75 -0.546875 C 3.15625 -0.546875 3.5 -0.695312 3.78125 -1 C 4.050781 -1.289062 4.1875 -1.628906 4.1875 -2.015625 Z M 4.1875 -2.015625 "/></g></g></g><g fill="#bc9c22" fill-opacity="1"><g transform="translate(143.437761, 84.430371)"><g><path d="M 1.34375 -5.4375 C 1.414062 -5.351562 1.453125 -5.257812 1.453125 -5.15625 C 1.453125 -5.039062 1.414062 -4.941406 1.34375 -4.859375 C 1.257812 -4.773438 1.164062 -4.734375 1.0625 -4.734375 C 0.9375 -4.734375 0.835938 -4.773438 0.765625 -4.859375 C 0.679688 -4.941406 0.640625 -5.039062 0.640625 -5.15625 C 0.640625 -5.257812 0.679688 -5.351562 0.765625 -5.4375 C 0.835938 -5.519531 0.9375 -5.5625 1.0625 -5.5625 C 1.164062 -5.5625 1.257812 -5.519531 1.34375 -5.4375 Z M 1.375 0 L 0.734375 0 L 0.734375 -4.046875 L 1.375 -4.046875 Z M 1.375 0 "/></g></g></g><g fill="#bc9c22" fill-opacity="1"><g transform="translate(146.184268, 84.430371)"><g><path d="M 1.328125 0 L 0.6875 0 L 0.6875 -6.890625 L 1.328125 -6.890625 Z M 1.328125 0 "/></g></g></g><g fill="#bc9c22" fill-opacity="1"><g transform="translate(148.848103, 84.430371)"><g><path d="M 1.34375 -5.4375 C 1.414062 -5.351562 1.453125 -5.257812 1.453125 -5.15625 C 1.453125 -5.039062 1.414062 -4.941406 1.34375 -4.859375 C 1.257812 -4.773438 1.164062 -4.734375 1.0625 -4.734375 C 0.9375 -4.734375 0.835938 -4.773438 0.765625 -4.859375 C 0.679688 -4.941406 0.640625 -5.039062 0.640625 -5.15625 C 0.640625 -5.257812 0.679688 -5.351562 0.765625 -5.4375 C 0.835938 -5.519531 0.9375 -5.5625 1.0625 -5.5625 C 1.164062 -5.5625 1.257812 -5.519531 1.34375 -5.4375 Z M 1.375 0 L 0.734375 0 L 0.734375 -4.046875 L 1.375 -4.046875 Z M 1.375 0 "/></g></g></g><g fill="#bc9c22" fill-opacity="1"><g transform="translate(151.59461, 84.430371)"><g><path d="M 0.1875 -3.4375 L 0.1875 -4.046875 L 1.1875 -4.046875 L 1.1875 -5.609375 L 1.84375 -5.609375 L 1.84375 -4.046875 L 2.84375 -4.046875 L 2.84375 -3.4375 L 1.84375 -3.4375 L 1.84375 0 L 1.1875 0 L 1.1875 -3.4375 Z M 0.1875 -3.4375 "/></g></g></g><g fill="#bc9c22" fill-opacity="1"><g transform="translate(155.259687, 84.430371)"><g><path d="M 3.90625 -2.015625 C 3.90625 -2.410156 3.769531 -2.753906 3.5 -3.046875 C 3.226562 -3.335938 2.890625 -3.484375 2.484375 -3.484375 C 2.078125 -3.484375 1.738281 -3.335938 1.46875 -3.046875 C 1.195312 -2.753906 1.0625 -2.410156 1.0625 -2.015625 C 1.0625 -1.628906 1.195312 -1.289062 1.46875 -1 C 1.738281 -0.695312 2.078125 -0.546875 2.484375 -0.546875 C 2.890625 -0.546875 3.226562 -0.695312 3.5 -1 C 3.769531 -1.289062 3.90625 -1.628906 3.90625 -2.015625 Z M 4.546875 0 L 3.90625 0 L 3.90625 -0.6875 C 3.863281 -0.632812 3.828125 -0.585938 3.796875 -0.546875 C 3.410156 -0.117188 2.9375 0.09375 2.375 0.09375 C 1.820312 0.09375 1.351562 -0.117188 0.96875 -0.546875 C 0.59375 -0.960938 0.40625 -1.453125 0.40625 -2.015625 C 0.40625 -2.578125 0.59375 -3.066406 0.96875 -3.484375 C 1.351562 -3.921875 1.820312 -4.140625 2.375 -4.140625 C 2.9375 -4.140625 3.410156 -3.921875 3.796875 -3.484375 C 3.828125 -3.441406 3.863281 -3.398438 3.90625 -3.359375 L 3.90625 -4.046875 L 4.546875 -4.046875 Z M 4.546875 0 "/></g></g></g><g fill="#bc9c22" fill-opacity="1"><g transform="translate(161.138507, 84.430371)"><g><path d="M 4.46875 -2.59375 L 3.765625 -2.59375 C 3.648438 -2.851562 3.476562 -3.0625 3.25 -3.21875 C 3.019531 -3.375 2.785156 -3.453125 2.546875 -3.453125 C 2.304688 -3.453125 2.097656 -3.414062 1.921875 -3.34375 C 1.753906 -3.257812 1.609375 -3.15625 1.484375 -3.03125 C 1.210938 -2.738281 1.078125 -2.398438 1.078125 -2.015625 C 1.078125 -1.628906 1.210938 -1.296875 1.484375 -1.015625 C 1.753906 -0.722656 2.085938 -0.578125 2.484375 -0.578125 C 2.734375 -0.578125 2.972656 -0.644531 3.203125 -0.78125 C 3.410156 -0.914062 3.578125 -1.097656 3.703125 -1.328125 L 4.421875 -1.328125 C 4.203125 -0.671875 3.765625 -0.234375 3.109375 -0.015625 C 2.910156 0.0546875 2.679688 0.09375 2.421875 0.09375 C 2.171875 0.09375 1.914062 0.0351562 1.65625 -0.078125 C 1.40625 -0.191406 1.191406 -0.347656 1.015625 -0.546875 C 0.609375 -0.960938 0.40625 -1.453125 0.40625 -2.015625 C 0.40625 -2.597656 0.609375 -3.09375 1.015625 -3.5 C 1.410156 -3.914062 1.898438 -4.125 2.484375 -4.125 C 2.941406 -4.125 3.359375 -3.976562 3.734375 -3.6875 C 4.085938 -3.414062 4.332031 -3.050781 4.46875 -2.59375 Z M 4.46875 -2.59375 "/></g></g></g><g fill="#bc9c22" fill-opacity="1"><g transform="translate(166.567234, 84.430371)"><g><path d="M 1.34375 -5.4375 C 1.414062 -5.351562 1.453125 -5.257812 1.453125 -5.15625 C 1.453125 -5.039062 1.414062 -4.941406 1.34375 -4.859375 C 1.257812 -4.773438 1.164062 -4.734375 1.0625 -4.734375 C 0.9375 -4.734375 0.835938 -4.773438 0.765625 -4.859375 C 0.679688 -4.941406 0.640625 -5.039062 0.640625 -5.15625 C 0.640625 -5.257812 0.679688 -5.351562 0.765625 -5.4375 C 0.835938 -5.519531 0.9375 -5.5625 1.0625 -5.5625 C 1.164062 -5.5625 1.257812 -5.519531 1.34375 -5.4375 Z M 1.375 0 L 0.734375 0 L 0.734375 -4.046875 L 1.375 -4.046875 Z M 1.375 0 "/></g></g></g><g fill="#bc9c22" fill-opacity="1"><g transform="translate(169.313741, 84.430371)"><g><path d="M 4 -2.046875 C 4 -2.441406 3.851562 -2.785156 3.5625 -3.078125 C 3.28125 -3.367188 2.9375 -3.515625 2.53125 -3.515625 C 2.125 -3.515625 1.773438 -3.367188 1.484375 -3.078125 C 1.203125 -2.785156 1.0625 -2.441406 1.0625 -2.046875 C 1.0625 -1.640625 1.203125 -1.296875 1.484375 -1.015625 C 1.773438 -0.722656 2.125 -0.578125 2.53125 -0.578125 C 2.9375 -0.578125 3.28125 -0.722656 3.5625 -1.015625 C 3.851562 -1.296875 4 -1.640625 4 -2.046875 Z M 4.640625 -2.046875 C 4.640625 -1.453125 4.4375 -0.953125 4.03125 -0.546875 C 3.601562 -0.140625 3.101562 0.0625 2.53125 0.0625 C 1.945312 0.0625 1.445312 -0.140625 1.03125 -0.546875 C 0.613281 -0.953125 0.40625 -1.453125 0.40625 -2.046875 C 0.40625 -2.617188 0.613281 -3.113281 1.03125 -3.53125 C 1.445312 -3.945312 1.945312 -4.15625 2.53125 -4.15625 C 3.113281 -4.15625 3.613281 -3.945312 4.03125 -3.53125 C 4.4375 -3.113281 4.640625 -2.617188 4.640625 -2.046875 Z M 3.84375 -6.25 L 2.828125 -4.9375 L 2.3125 -4.9375 L 3.046875 -6.25 Z M 3.84375 -6.25 "/></g></g></g><g fill="#bc9c22" fill-opacity="1"><g transform="translate(175.008856, 84.430371)"><g><path d="M 3.484375 0 L 3.484375 -2.53125 C 3.484375 -2.789062 3.425781 -3.015625 3.3125 -3.203125 C 3.1875 -3.390625 2.984375 -3.484375 2.703125 -3.484375 C 2.429688 -3.484375 2.210938 -3.429688 2.046875 -3.328125 C 1.867188 -3.222656 1.726562 -3.085938 1.625 -2.921875 C 1.425781 -2.617188 1.328125 -2.207031 1.328125 -1.6875 L 1.328125 0 L 0.6875 0 L 0.6875 -4.046875 L 1.328125 -4.046875 L 1.328125 -3.34375 C 1.460938 -3.570312 1.632812 -3.757812 1.84375 -3.90625 C 2.0625 -4.050781 2.316406 -4.125 2.609375 -4.125 C 2.898438 -4.125 3.132812 -4.082031 3.3125 -4 C 3.488281 -3.914062 3.632812 -3.804688 3.75 -3.671875 C 4 -3.378906 4.125 -3 4.125 -2.53125 L 4.125 0 Z M 3.484375 0 "/></g></g></g><g fill="#bc9c22" fill-opacity="1"><g transform="translate(180.334365, 84.430371)"><g/></g></g><path fill="#bc9c22" d="M 20.800781 72.753906 C 21.417969 72.328125 21.84375 72.042969 22.367188 71.710938 C 21.84375 71.332031 21.417969 71 20.800781 70.523438 C 82.035156 70.523438 142.988281 70.523438 204.222656 70.523438 C 203.605469 71 203.179688 71.285156 202.65625 71.664062 C 203.128906 71.996094 203.558594 72.328125 204.175781 72.753906 C 142.988281 72.753906 82.035156 72.753906 20.800781 72.753906 Z M 20.800781 72.753906 " fill-opacity="1" fill-rule="nonzero"/><g clip-path="url(#9f4c63ddd4)"><path fill="#bc9c22" d="M 204.125 71.664062 C 206.402344 70.242188 208.441406 68.914062 210.53125 67.679688 C 210.816406 67.488281 211.335938 67.441406 211.667969 67.535156 C 215.890625 68.863281 220.160156 70.191406 224.617188 71.617188 C 223.953125 71.851562 223.574219 72.089844 223.101562 72.183594 C 219.449219 73.324219 215.796875 74.460938 212.191406 75.648438 C 211.289062 75.933594 210.671875 75.835938 209.914062 75.316406 C 208.109375 74.128906 206.214844 72.992188 204.125 71.664062 Z M 220.585938 71.710938 C 220.585938 71.617188 220.585938 71.519531 220.632812 71.425781 C 217.644531 70.476562 214.65625 69.527344 211.714844 68.582031 C 211.527344 68.53125 211.335938 68.4375 211.195312 68.53125 C 209.628906 69.480469 208.0625 70.476562 206.449219 71.425781 C 206.5 71.519531 206.546875 71.617188 206.59375 71.664062 C 211.242188 71.710938 215.890625 71.710938 220.585938 71.710938 Z M 220.585938 71.710938 " fill-opacity="1" fill-rule="nonzero"/></g><g clip-path="url(#a103df3cc3)"><path fill="#bc9c22" d="M 20.894531 71.664062 C 18.617188 73.085938 16.4375 74.460938 14.300781 75.789062 C 14.113281 75.933594 13.78125 75.933594 13.542969 75.886719 C 13.070312 75.789062 12.59375 75.601562 12.121094 75.457031 C 8.277344 74.226562 4.4375 72.992188 0.261719 71.664062 C 4.910156 70.191406 9.226562 68.816406 13.542969 67.441406 C 13.828125 67.347656 14.207031 67.441406 14.445312 67.585938 C 16.53125 68.914062 18.617188 70.242188 20.894531 71.664062 Z M 4.390625 71.425781 C 4.390625 71.472656 4.4375 71.570312 4.4375 71.617188 C 9.132812 71.617188 13.78125 71.617188 18.855469 71.617188 C 17.101562 70.523438 15.628906 69.578125 14.160156 68.675781 C 13.96875 68.53125 13.636719 68.484375 13.402344 68.53125 C 10.414062 69.527344 7.378906 70.476562 4.390625 71.425781 Z M 4.390625 71.425781 " fill-opacity="1" fill-rule="nonzero"/></g></svg>